<svg width="226" height="377" viewBox="0 0 226 377" fill="none" xmlns="http://www.w3.org/2000/svg">
<path d="M18.21 213.141C20.1344 190.413 34.3562 132.087 57.9113 71.1761C60.0282 68.5246 64.9548 62.9943 67.726 62.0852C70.4971 61.1761 71.1899 67.767 71.1899 71.1761L66.5713 77.9947C63.1073 84.8133 61.3753 89.3587 56.1793 108.677C50.9833 127.996 49.2513 143.906 46.942 164.361C44.6327 184.816 43.478 246.181 38.8594 251.863C34.2407 257.545 37.1274 242.772 37.1274 224.589C37.1274 206.407 49.8283 118.908 50.9833 110.95L50.9833 110.95C52.138 102.995 65.4166 68.9033 62.53 71.1761C59.6433 73.4489 50.9833 102.995 46.942 116.632C42.9007 130.269 22.6941 207.544 22.6941 224.589C22.6941 241.635 18.2101 268.909 25.138 268.909C28.0247 268.909 20.5194 289.364 18.21 268.909C16.3626 252.545 17.4402 224.126 18.21 213.141Z" fill="black" stroke="black"/>
<path fill-rule="evenodd" clip-rule="evenodd" d="M213.426 178.649C214.61 168.437 215.254 158.444 215.254 148.86C215.254 57.5829 156.886 28.394 129.339 28.394C101.793 28.394 35.0687 57.5829 35.0687 148.86C35.0687 158.452 35.8056 168.455 37.1564 178.676C31.8238 179.377 26.1899 190.611 26.1899 202.663C26.1899 215.11 37.1612 221.98 42.6416 221.98C43.9516 221.98 44.9188 221.503 45.6323 220.606C65.5642 295.63 108.579 368.596 129.339 368.596C150.082 368.596 188.301 295.758 205.915 220.804C206.61 221.573 207.528 221.98 208.738 221.98C214.219 221.98 225.19 215.11 225.19 202.663C225.19 190.216 219.18 178.641 213.7 178.641C213.609 178.641 213.517 178.644 213.426 178.649ZM131.07 348.948C127.146 351.671 61.7544 247.442 59.1387 232.836C56.523 218.229 45.7988 150.641 48.676 136.777C51.5533 122.913 64.6045 77.1118 72.1899 76.6167C79.7754 76.1215 119.822 76.1216 127.931 76.6167C130.262 76.7591 136.8 76.5967 144.602 76.4029C158.513 76.0574 176.439 75.6121 181.69 76.6167C193.984 91.4711 200.751 124.299 201.17 136.777C201.588 149.255 195.415 206.015 192.276 232.836L131.07 348.948Z" fill="black"/>
<path d="M172.839 251.048L176.534 212.379L144.534 225.28L172.839 251.048Z" fill="black"/>
<path d="M109.827 220.866L78.6035 242.789L74.2253 207.759L109.827 220.866Z" fill="black"/>
<path fill-rule="evenodd" clip-rule="evenodd" d="M47.6033 158.25C47.6033 159.598 47.7067 160.916 47.9065 162.203V210.032L136.912 174.617V155.568H119.639C114.912 142.795 101.312 133.567 85.271 133.567C65.3065 133.567 47.6033 140.617 47.6033 158.25ZM85.2706 184.007C98.8599 184.007 109.876 176.079 109.876 166.299C109.876 156.52 98.8599 148.592 85.2706 148.592C71.6814 148.592 60.6651 156.52 60.6651 166.299C60.6651 176.079 71.6814 184.007 85.2706 184.007Z" fill="black"/>
<path fill-rule="evenodd" clip-rule="evenodd" d="M165.689 187.495C185.087 187.495 203.763 183.128 203.763 165.495C203.763 147.862 190.99 138.933 171.592 138.933C152.194 138.933 133.517 147.862 133.517 165.495C133.517 183.128 146.291 187.495 165.689 187.495ZM168.641 180.251C180.214 180.251 189.596 174.005 189.596 166.299C189.596 158.594 180.214 152.348 168.641 152.348C157.067 152.348 147.685 158.594 147.685 166.299C147.685 174.005 157.067 180.251 168.641 180.251Z" fill="black"/>
<path d="M55.1902 163H117.863L115.774 167.561H57.5404L55.1902 163Z" fill="black"/>
<path d="M141.19 163H203.863L201.774 167.561H143.54L141.19 163Z" fill="black"/>
<path d="M118.633 154.494H137.957L134.04 269.326H122.55L118.633 154.494Z" fill="black"/>
<path d="M158.807 272H172.648L157.502 307.416L150.19 319.489L158.807 272Z" fill="black"/>
<path d="M99.0304 286H85.1901L100.336 321.416L107.648 333.489L99.0304 286Z" fill="black"/>
<rect x="116.543" y="266.643" width="23.5024" height="5.36596" fill="black"/>
<rect x="113.376" y="333.04" width="30.9372" height="21.0101" fill="black"/>
<path d="M107.751 353.243L149.001 354.051L137.751 369H123.22L113.376 359.303L107.751 353.243Z" fill="black"/>
<path d="M164.19 44.157C164.19 64.2766 149.895 76 128.654 76C107.413 76 90.1899 70.5575 90.1899 50.4379C90.1899 30.3183 107.413 0 128.654 0C149.895 0 164.19 24.0374 164.19 44.157Z" fill="black"/>
<ellipse cx="128.845" cy="294.253" rx="15.4686" ry="7.27273" fill="black"/>
<ellipse rx="7.77196" ry="11.7761" transform="matrix(0.967763 0.251864 -0.33059 0.943775 188.54 279.041)" fill="black"/>
<ellipse rx="7.77196" ry="11.7761" transform="matrix(0.967763 0.251864 -0.33059 0.943775 188.54 279.041)" fill="black"/>
<ellipse rx="7.77196" ry="11.7761" transform="matrix(0.967763 0.251864 -0.33059 0.943775 188.54 279.041)" fill="black"/>
<ellipse rx="7.77196" ry="11.7761" transform="matrix(0.967763 0.251864 -0.33059 0.943775 180.103 299.243)" fill="black"/>
<ellipse rx="7.77196" ry="11.7761" transform="matrix(0.967763 0.251864 -0.33059 0.943775 180.103 299.243)" fill="black"/>
<ellipse rx="7.77196" ry="11.7761" transform="matrix(0.967763 0.251864 -0.33059 0.943775 180.103 299.243)" fill="black"/>
<ellipse rx="7.77196" ry="11.7761" transform="matrix(0.967763 0.251864 -0.33059 0.943775 171.665 319.445)" fill="black"/>
<ellipse rx="7.77196" ry="11.7761" transform="matrix(0.967763 0.251864 -0.33059 0.943775 171.665 319.445)" fill="black"/>
<ellipse rx="7.77196" ry="11.7761" transform="matrix(0.967763 0.251864 -0.33059 0.943775 171.665 319.445)" fill="black"/>
<ellipse rx="7.77196" ry="11.7761" transform="matrix(0.967763 0.251864 -0.33059 0.943775 159.478 338.031)" fill="black"/>
<ellipse rx="7.77196" ry="11.7761" transform="matrix(0.967763 0.251864 -0.33059 0.943775 159.478 338.031)" fill="black"/>
<ellipse rx="7.77196" ry="11.7761" transform="matrix(0.967763 0.251864 -0.33059 0.943775 159.478 338.031)" fill="black"/>
<ellipse rx="7.77196" ry="11.7761" transform="matrix(0.967763 0.251864 -0.33059 0.943775 145.416 353.384)" fill="black"/>
<ellipse rx="7.77196" ry="11.7761" transform="matrix(0.967763 0.251864 -0.33059 0.943775 145.416 353.384)" fill="black"/>
<ellipse rx="7.77196" ry="11.7761" transform="matrix(0.967763 0.251864 -0.33059 0.943775 145.416 353.384)" fill="black"/>
<ellipse rx="7.77196" ry="11.7761" transform="matrix(-0.967763 0.251864 0.33059 0.943775 108.854 354.193)" fill="black"/>
<ellipse rx="7.77196" ry="11.7761" transform="matrix(-0.967763 0.251864 0.33059 0.943775 108.854 354.193)" fill="black"/>
<ellipse rx="7.77196" ry="11.7761" transform="matrix(-0.967763 0.251864 0.33059 0.943775 108.854 354.193)" fill="black"/>
<ellipse rx="7.77196" ry="11.7761" transform="matrix(-0.967763 0.251864 0.33059 0.943775 95.7288 338.031)" fill="black"/>
<ellipse rx="7.77196" ry="11.7761" transform="matrix(-0.967763 0.251864 0.33059 0.943775 95.7288 338.031)" fill="black"/>
<ellipse rx="7.77196" ry="11.7761" transform="matrix(-0.967763 0.251864 0.33059 0.943775 95.7288 338.031)" fill="black"/>
<ellipse rx="7.77196" ry="11.7761" transform="matrix(-0.967763 0.251864 0.33059 0.943775 82.6043 319.445)" fill="black"/>
<ellipse rx="7.77196" ry="11.7761" transform="matrix(-0.967763 0.251864 0.33059 0.943775 82.6043 319.445)" fill="black"/>
<ellipse rx="7.77196" ry="11.7761" transform="matrix(-0.967763 0.251864 0.33059 0.943775 82.6043 319.445)" fill="black"/>
<ellipse rx="7.77196" ry="11.7761" transform="matrix(-0.967763 0.251864 0.33059 0.943775 73.2291 299.243)" fill="black"/>
<ellipse rx="7.77196" ry="11.7761" transform="matrix(-0.967763 0.251864 0.33059 0.943775 73.2291 299.243)" fill="black"/>
<ellipse rx="7.77196" ry="11.7761" transform="matrix(-0.967763 0.251864 0.33059 0.943775 73.2291 299.243)" fill="black"/>
<ellipse rx="7.77196" ry="11.7761" transform="matrix(-0.967763 0.251864 0.33059 0.943775 65.7291 279.041)" fill="black"/>
<ellipse rx="7.77196" ry="11.7761" transform="matrix(-0.967763 0.251864 0.33059 0.943775 65.7291 279.041)" fill="black"/>
<ellipse rx="7.77196" ry="11.7761" transform="matrix(-0.967763 0.251864 0.33059 0.943775 65.7291 279.041)" fill="black"/>
<path d="M61.1897 170H109.69L111.69 184H58.1897L61.1897 170Z" fill="black"/>
<path d="M147.19 170H200.19L197.69 184H144.19L147.19 170Z" fill="black"/>
<path d="M59.44 123.629C59.1804 123.076 59.1884 122.434 59.4616 121.887L60.8608 119.085C61.6204 117.565 63.8107 117.625 64.4856 119.185L65.696 121.983C65.9089 122.475 65.9152 123.033 65.7134 123.53L64.5016 126.514C63.8452 128.13 61.5784 128.19 60.8378 126.61L59.44 123.629Z" fill="black"/>
<path d="M92.4398 121.629C92.1802 121.076 92.1881 120.434 92.4614 119.887L93.8605 117.085C94.6201 115.565 96.8105 115.625 97.4854 117.185L98.6957 119.983C98.9087 120.475 98.915 121.033 98.7131 121.53L97.5014 124.514C96.8449 126.13 94.5782 126.19 93.8375 124.61L92.4398 121.629Z" fill="black"/>
<path d="M125.44 131.63C125.18 131.076 125.188 130.434 125.461 129.887L126.861 127.086C127.62 125.565 129.81 125.625 130.485 127.185L131.696 129.983C131.909 130.476 131.915 131.033 131.713 131.53L130.501 134.514C129.845 136.13 127.578 136.19 126.838 134.61L125.44 131.63Z" fill="black"/>
<path d="M161.439 121.629C161.18 121.076 161.188 120.434 161.461 119.887L162.86 117.085C163.62 115.565 165.81 115.625 166.485 117.185L167.695 119.983C167.908 120.475 167.914 121.033 167.713 121.53L166.501 124.514C165.844 126.13 163.578 126.19 162.837 124.61L161.439 121.629Z" fill="black"/>
<path d="M186.439 131.63C186.179 131.076 186.187 130.434 186.461 129.887L187.86 127.086C188.619 125.565 190.81 125.625 191.485 127.185L192.695 129.983C192.908 130.476 192.914 131.033 192.712 131.53L191.501 134.514C190.844 136.13 188.577 136.19 187.837 134.61L186.439 131.63Z" fill="black"/>
<rect x="123.19" y="363" width="15" height="14" rx="2" fill="black"/>
<path d="M6.64746 170.377C11.5333 146.377 41.2928 85.7246 88.5163 23.2616C92.5968 20.6526 102.056 15.2627 107.25 14.5745C112.443 13.8864 113.347 20.9723 113.149 24.6013L104.187 31.3937C97.3657 38.3026 93.8896 42.9664 83.132 63.007C72.3745 83.0475 68.2404 99.8085 62.7721 121.35C57.3039 142.891 51.609 208.098 42.712 213.681C33.815 219.263 40.0254 203.829 41.0781 184.473C42.1308 165.118 70.7585 73.2544 73.3614 64.902L73.3615 64.9019C75.964 56.5505 102.571 21.5994 97.0843 23.7276C91.5977 25.8557 73.822 56.434 65.5355 70.5426C57.2489 84.6512 15.2899 164.872 14.303 183.017C13.3161 201.162 3.41878 229.743 16.2708 230.442C21.6258 230.733 6.51848 251.75 3.41874 229.743C0.938942 212.137 4.58346 181.993 6.64746 170.377Z" fill="black" stroke="black"/>
<path d="M42.5974 244.988C40.3179 218.602 49.416 147.765 72.9311 70.8594C75.7122 67.1444 82.3363 59.2239 86.5834 57.262C90.8304 55.3001 93.5056 62.531 94.3123 66.3918L88.4889 75.6676C84.5246 84.555 82.8114 90.2852 79.0162 113.911C75.2211 137.538 76.1969 156.137 77.3188 180.079C78.4407 204.021 91.1026 273.904 85.0101 281.893C78.9177 289.882 80.07 272.18 75.7674 251.589C71.4648 230.998 71.2105 127.632 71.1874 118.233L71.1874 118.233C71.1643 108.836 84.4783 65.7604 80.368 69.3055C76.2577 72.8506 69.305 109.225 66.0246 126.028C62.7441 142.831 48.4932 237.141 52.5269 256.445C56.5605 275.749 55.7941 308.144 66.9495 305.813C71.5977 304.842 64.3529 330.532 55.7941 308.144C48.947 290.234 43.9573 257.688 42.5974 244.988Z" fill="black" stroke="black"/>
<path d="M209.19 234C208.79 228.8 210.69 222.833 211.69 220.5C214.69 223 215.19 231.5 215.19 234C215.19 235.649 214.023 243.333 211.69 247C211.023 244.833 209.59 239.2 209.19 234Z" fill="black" stroke="black"/>
</svg>
